<?xml version="1.0" standalone="no"?>
<!DOCTYPE svg PUBLIC "-//W3C//DTD SVG 20010904//EN"
 "http://www.w3.org/TR/2001/REC-SVG-20010904/DTD/svg10.dtd">
<svg version="1.0" xmlns="http://www.w3.org/2000/svg"
 width="736.000000pt" height="736.000000pt" viewBox="0 0 736.000000 736.000000"
 preserveAspectRatio="xMidYMid meet">

<g transform="translate(0.000000,736.000000) scale(0.100000,-0.100000)"
fill="#000000" stroke="none">
<path d="M3795 5756 c-45 -21 -108 -78 -132 -119 -7 -15 -16 -15 -69 -5 -50 9
-69 8 -118 -6 -66 -20 -135 -81 -156 -138 -12 -33 -17 -36 -67 -42 -89 -10
-163 -60 -196 -133 -7 -15 -22 -24 -51 -29 -95 -15 -178 -82 -212 -170 -14
-37 -20 -42 -56 -48 -52 -8 -88 -28 -128 -68 -41 -41 -69 -102 -70 -149 0 -34
-3 -38 -44 -53 -60 -23 -121 -91 -140 -157 -9 -29 -16 -60 -16 -70 0 -10 -17
-26 -44 -38 -96 -47 -156 -138 -160 -243 l-2 -59 -58 -24 c-67 -27 -128 -81
-158 -140 -30 -57 -36 -171 -13 -232 12 -31 15 -48 7 -51 -6 -2 -28 -16 -50
-32 -85 -62 -114 -208 -60 -302 15 -24 34 -50 42 -57 12 -11 15 -25 10 -67 -9
-74 29 -153 90 -189 36 -21 45 -32 50 -63 12 -81 94 -153 181 -160 30 -2 55
-8 55 -13 0 -5 16 -27 36 -49 48 -53 120 -76 189 -60 47 10 48 10 89 -28 54
-49 120 -69 187 -55 43 8 51 7 67 -10 34 -38 98 -59 325 -107 473 -100 951
-174 1202 -186 118 -6 144 -10 167 -27 42 -31 135 -35 190 -8 l43 21 49 -25
c27 -14 66 -25 85 -25 47 1 112 31 138 64 15 18 30 26 52 26 80 0 163 65 187
145 12 44 19 53 51 64 91 33 162 152 150 252 -5 43 -3 52 19 76 60 65 79 162
50 251 -17 49 -17 51 6 94 17 32 22 60 23 113 0 47 5 79 16 95 64 100 44 243
-44 316 l-36 30 15 49 c26 88 -9 189 -84 240 l-37 25 4 69 c2 52 -2 80 -16
113 -20 43 -76 101 -118 120 -20 9 -23 19 -27 74 -4 71 -23 104 -78 142 -32
21 -33 25 -31 76 4 91 -46 174 -129 211 -34 15 -38 22 -44 64 -13 96 -95 180
-192 196 -37 6 -41 9 -52 50 -23 87 -121 164 -207 165 -36 0 -44 5 -75 47 -46
62 -106 93 -180 93 -51 0 -58 3 -68 24 -20 45 -86 109 -137 132 -35 17 -68 24
-110 24 -42 0 -75 -7 -110 -24z m195 -71 c42 -21 78 -64 96 -113 10 -26 21
-51 25 -56 5 -6 31 -4 64 3 52 12 59 11 103 -11 37 -18 53 -34 73 -73 l25 -50
65 0 c73 0 93 -9 138 -60 25 -29 31 -44 31 -83 0 -69 8 -76 83 -76 75 -1 110
-20 140 -77 14 -25 17 -47 13 -85 -7 -59 0 -68 57 -78 49 -9 104 -58 117 -104
8 -29 6 -49 -6 -89 -19 -62 -12 -77 40 -87 66 -12 98 -77 72 -141 -9 -21 -14
-46 -11 -56 6 -18 15 -22 72 -34 40 -8 100 -72 108 -117 4 -21 0 -50 -10 -78
-24 -66 -24 -82 5 -95 14 -7 38 -18 54 -26 40 -19 66 -58 73 -107 4 -33 0 -50
-21 -86 -37 -63 -34 -77 21 -106 63 -33 93 -79 93 -142 0 -54 -10 -80 -48
-120 -20 -22 -23 -32 -17 -55 4 -15 8 -49 9 -75 1 -38 -5 -53 -33 -88 l-34
-42 22 -39 c53 -94 45 -162 -26 -232 -45 -45 -45 -45 -33 -82 30 -90 -16 -187
-101 -214 -70 -22 -74 -25 -79 -73 -10 -85 -60 -131 -137 -128 -68 4 -69 3
-83 -30 -17 -41 -46 -60 -94 -60 -33 0 -45 6 -76 40 -20 22 -43 40 -52 40 -8
0 -29 -16 -48 -35 -42 -44 -85 -53 -135 -29 -20 9 -39 24 -42 32 -14 35 43
487 118 929 21 128 36 239 33 248 -18 45 -711 187 -1126 230 -186 19 -452 20
-532 1 -101 -24 -90 13 -162 -562 -35 -279 -68 -512 -74 -518 -6 -6 -37 -11
-68 -11 -65 0 -100 20 -129 72 -23 43 -35 46 -85 23 -24 -11 -55 -20 -69 -20
-39 0 -92 40 -114 88 l-19 42 -59 0 c-99 0 -137 32 -147 124 -3 29 -11 52 -20
56 -8 4 -32 15 -52 23 -63 27 -78 80 -53 178 6 22 0 33 -34 64 -22 21 -45 53
-52 72 -15 48 -6 114 21 152 22 31 86 71 114 71 34 0 36 33 3 89 -82 145 2
313 164 329 60 6 72 22 57 78 -15 56 -2 125 32 172 29 40 99 82 138 82 29 0
40 25 34 76 -9 85 55 167 143 181 45 7 50 15 50 83 1 97 67 170 154 170 52 0
81 14 81 41 0 29 28 90 53 117 35 38 77 56 142 62 57 5 61 7 70 37 15 46 50
90 87 109 24 13 46 15 94 10 l62 -6 16 54 c19 64 57 113 103 132 47 20 112 17
151 -6 53 -32 69 -27 95 33 26 58 82 113 125 123 15 3 32 7 37 9 16 5 78 -7
105 -20z"/>
</g>
</svg>
